<?xml version="1.0" standalone="no"?>
<!DOCTYPE svg PUBLIC "-//W3C//DTD SVG 20010904//EN"
 "http://www.w3.org/TR/2001/REC-SVG-20010904/DTD/svg10.dtd">
<svg version="1.0" xmlns="http://www.w3.org/2000/svg"
 width="768.000000pt" height="768.000000pt" viewBox="0 0 768.000000 768.000000"
 preserveAspectRatio="xMidYMid meet">
<metadata>
Created by potrace 1.14, written by Peter Selinger 2001-2017
</metadata>
<g transform="translate(0.000000,768.000000) scale(0.100000,-0.100000)"
fill="#000000" stroke="none">
<path d="M3500 7579 c-61 -9 -158 -50 -217 -90 -55 -38 -263 -243 -1743 -1721
-966 -964 -1068 -1069 -1097 -1128 -64 -127 -61 -49 -60 -1624 1 -981 5 -1436
12 -1437 5 -1 338 -2 739 -3 478 -1 730 2 732 9 2 6 5 984 6 2175 l3 2165 27
55 c30 61 59 83 134 101 37 9 574 12 2164 14 1163 2 2117 3 2120 4 3 0 6 333
5 738 l0 737 -35 8 c-43 10 -2727 7 -2790 -3z"/>
<path d="M4842 4027 l-562 -562 934 -935 c514 -514 933 -937 931 -941 -3 -3
-800 -6 -1772 -7 -972 0 -1934 -1 -2136 -2 l-368 -2 3 -719 3 -720 25 -6 c32
-8 2453 -8 2660 0 308 12 320 20 885 582 166 165 411 406 546 536 203 197
1311 1300 1362 1357 15 17 -49 83 -966 1000 l-982 982 -563 -563z"/>
</g>
</svg>
